<?xml version="1.0" encoding="UTF-8" standalone="no"?>
<!DOCTYPE svg PUBLIC "-//W3C//DTD SVG 1.1//EN" "http://www.w3.org/Graphics/SVG/1.1/DTD/svg11.dtd">
<svg width="100%" height="100%" viewBox="0 0 3150 3150" version="1.1" xmlns="http://www.w3.org/2000/svg" xmlns:xlink="http://www.w3.org/1999/xlink" xml:space="preserve" xmlns:serif="http://www.serif.com/" style="fill-rule:evenodd;clip-rule:evenodd;stroke-linecap:round;stroke-linejoin:round;stroke-miterlimit:1.5;">
    <g id="レイヤー1">
        <g transform="matrix(1.01184,0,0,1.01184,-18.641,-18.641)">
            <circle cx="1574.8" cy="1574.8" r="1478.56" style="stroke:white;stroke-width:51.36px;"/>
        </g>
        <g transform="matrix(0.781557,0,0,0.88503,344.005,56.5238)">
            <path d="M651.301,2140.79C550.049,1976.04 491.64,1782.19 491.64,1574.8C491.64,976.989 976.989,491.64 1574.8,491.64C2172.62,491.64 2657.97,976.989 2657.97,1574.8C2657.97,1782.19 2599.56,1976.04 2498.31,2140.78C2428.28,2121.42 2352.52,2115.77 2275.58,2126.8C2013.03,2164.43 1833,2382.49 1865.02,2618.58C1772.64,2644.25 1675.31,2657.97 1574.8,2657.97C1474.31,2657.97 1376.99,2644.25 1284.62,2618.59C1316.65,2382.49 1136.62,2164.43 874.061,2126.8C797.114,2115.77 721.342,2121.42 651.301,2140.79ZM2483.03,1200.78C2483.03,1166.79 2451.78,1139.19 2413.28,1139.19L736.323,1139.19C697.831,1139.19 666.579,1166.79 666.579,1200.78L666.579,1460.8C666.579,1494.79 697.831,1522.39 736.323,1522.39L2413.28,1522.39C2451.78,1522.39 2483.03,1494.79 2483.03,1460.8L2483.03,1200.78ZM1574.8,1650.25C1498.83,1650.25 1437.15,1679.92 1437.15,1716.47C1437.15,1753.02 1498.83,1782.69 1574.8,1782.69C1650.78,1782.69 1712.46,1753.02 1712.46,1716.47C1712.46,1679.92 1650.78,1650.25 1574.8,1650.25Z" style="fill:white;"/>
        </g>
        <g id="EAR_R" transform="matrix(1,0,0,1,97.8089,-12.4531)">
            <path d="M978.09,381.896C1169.96,381.896 1325.74,537.673 1325.74,729.546C1325.74,921.42 1169.96,1077.2 978.09,1077.2C786.217,1077.2 630.44,921.42 630.44,729.546C630.44,537.673 786.217,381.896 978.09,381.896ZM978.09,540.466C854.375,540.466 753.934,640.907 753.934,764.623C753.934,888.338 854.375,988.779 978.09,988.779C1101.81,988.779 1202.25,888.338 1202.25,764.623C1202.25,640.907 1101.81,540.466 978.09,540.466Z" style="fill:white;"/>
        </g>
        <g id="EAR_L" transform="matrix(-1,0,0,1,3052.11,-12.4531)">
            <path d="M978.09,381.896C1169.96,381.896 1325.74,537.673 1325.74,729.546C1325.74,921.42 1169.96,1077.2 978.09,1077.2C786.217,1077.2 630.44,921.42 630.44,729.546C630.44,537.673 786.217,381.896 978.09,381.896ZM978.09,540.466C854.375,540.466 753.934,640.907 753.934,764.623C753.934,888.338 854.375,988.779 978.09,988.779C1101.81,988.779 1202.25,888.338 1202.25,764.623C1202.25,640.907 1101.81,540.466 978.09,540.466Z" style="fill:white;"/>
        </g>
        <g id="EYE_R" transform="matrix(1,0,0,1,-2.1253,6.37599)">
            <path d="M1223.26,1089.6C1296.57,1089.6 1356.1,1149.12 1356.1,1222.43C1356.1,1295.75 1296.57,1355.27 1223.26,1355.27C1149.95,1355.27 1090.43,1295.75 1090.43,1222.43C1090.43,1149.12 1149.95,1089.6 1223.26,1089.6ZM1223.26,1133.17C1174,1133.17 1134,1173.17 1134,1222.43C1134,1271.7 1174,1311.7 1223.26,1311.7C1272.53,1311.7 1312.53,1271.7 1312.53,1222.43C1312.53,1173.17 1272.53,1133.17 1223.26,1133.17Z" style="fill:white;"/>
        </g>
        <g id="EYE_L" transform="matrix(-1,0,0,1,3152.4,6.37599)">
            <path d="M1223.26,1089.6C1296.57,1089.6 1356.1,1149.12 1356.1,1222.43C1356.1,1295.75 1296.57,1355.27 1223.26,1355.27C1149.95,1355.27 1090.43,1295.75 1090.43,1222.43C1090.43,1149.12 1149.95,1089.6 1223.26,1089.6ZM1223.26,1133.17C1174,1133.17 1134,1173.17 1134,1222.43C1134,1271.7 1174,1311.7 1223.26,1311.7C1272.53,1311.7 1312.53,1271.7 1312.53,1222.43C1312.53,1173.17 1272.53,1133.17 1223.26,1133.17Z" style="fill:white;"/>
        </g>
        <g id="HAND_R" transform="matrix(0.965858,0.156748,-0.153984,0.948827,292.603,-32.4249)">
            <path d="M1063.7,1897.4C1284.25,1897.4 1463.35,2083.63 1463.35,2313.07C1463.35,2542.51 1284.25,2728.74 1063.7,2728.74C843.147,2728.74 664.041,2542.51 664.041,2313.07C664.041,2083.63 843.147,1897.4 1063.7,1897.4ZM1061.39,1952.68C1052.48,1952.87 1044.38,1957.31 1037.84,1964.51C1027.42,1975.98 1020.99,1994.32 1021.41,2014.78C1021.83,2035.24 1029,2053.29 1039.88,2064.31C1046.71,2071.23 1054.99,2075.32 1063.9,2075.13C1072.82,2074.94 1080.92,2070.5 1087.46,2063.3C1097.88,2051.83 1104.31,2033.49 1103.89,2013.03C1103.47,1992.57 1096.3,1974.52 1085.41,1963.5C1078.59,1956.58 1070.31,1952.49 1061.39,1952.68ZM1063.6,2123.23C972.097,2123.28 898.123,2208.52 898.179,2313.16C898.235,2417.8 972.299,2502.96 1063.8,2502.91C1155.3,2502.86 1229.27,2417.62 1229.21,2312.98C1229.16,2208.34 1155.1,2123.18 1063.6,2123.23ZM848.657,2027.12C840.102,2029.66 833.409,2036.1 828.94,2044.78C821.813,2058.62 820.299,2078.03 825.939,2097.67C831.579,2117.32 843.125,2132.84 856.452,2140.6C864.811,2145.46 873.855,2147.22 882.411,2144.67C890.966,2142.12 897.659,2135.69 902.128,2127.01C909.254,2113.17 910.769,2093.76 905.129,2074.11C899.488,2054.47 887.943,2038.94 874.615,2031.19C866.257,2026.32 857.213,2024.57 848.657,2027.12ZM1268.03,2027.02C1259.52,2024.32 1250.45,2025.9 1242,2030.61C1228.54,2038.12 1216.71,2053.42 1210.72,2072.96C1204.73,2092.49 1205.89,2111.93 1212.77,2125.9C1217.08,2134.66 1223.66,2141.22 1232.16,2143.93C1240.67,2146.63 1249.75,2145.05 1258.19,2140.34C1271.66,2132.84 1283.48,2117.53 1289.47,2097.99C1295.47,2078.46 1294.3,2059.02 1287.42,2045.05C1283.11,2036.29 1276.54,2029.73 1268.03,2027.02Z" style="fill:white;"/>
        </g>
        <g id="HAND_L" transform="matrix(-0.965858,0.156748,0.153984,0.948827,2857.03,-32.4249)">
            <path d="M1063.7,1897.4C843.147,1897.4 664.041,2083.63 664.041,2313.07C664.041,2542.51 843.147,2728.74 1063.7,2728.74C1284.25,2728.74 1463.35,2542.51 1463.35,2313.07C1463.35,2083.63 1284.25,1897.4 1063.7,1897.4ZM1049.11,1954.71C1058.02,1954.52 1066.31,1958.61 1073.13,1965.53C1084.02,1976.55 1091.19,1994.6 1091.61,2015.06C1092.03,2035.52 1085.6,2053.86 1075.18,2065.33C1068.64,2072.53 1060.53,2076.97 1051.62,2077.16C1042.71,2077.35 1034.43,2073.26 1027.6,2066.34C1016.72,2055.32 1009.54,2037.27 1009.12,2016.81C1008.71,1996.35 1015.13,1978.01 1025.56,1966.54C1032.09,1959.34 1040.2,1954.9 1049.11,1954.71ZM1051.31,2125.26C1142.81,2125.21 1216.88,2210.37 1216.93,2315.01C1216.99,2419.65 1143.01,2504.89 1051.52,2504.94C960.016,2504.99 885.952,2419.83 885.896,2315.19C885.841,2210.55 959.814,2125.31 1051.31,2125.26ZM836.374,2029.14C844.93,2026.6 853.974,2028.35 862.333,2033.22C875.66,2040.97 887.206,2056.5 892.846,2076.14C898.486,2095.78 896.972,2115.2 889.845,2129.04C885.376,2137.72 878.683,2144.15 870.128,2146.7C861.572,2149.24 852.528,2147.49 844.17,2142.63C830.842,2134.87 819.297,2119.35 813.656,2099.7C808.016,2080.06 809.531,2060.65 816.657,2046.81C821.126,2038.13 827.819,2031.69 836.374,2029.14ZM1255.75,2029.05C1264.26,2031.76 1270.83,2038.32 1275.14,2047.08C1282.02,2061.05 1283.18,2080.49 1277.19,2100.02C1271.2,2119.56 1259.37,2134.87 1245.91,2142.37C1237.46,2147.08 1228.39,2148.66 1219.88,2145.96C1211.37,2143.25 1204.8,2136.69 1200.49,2127.93C1193.61,2113.96 1192.44,2094.52 1198.44,2074.99C1204.43,2055.45 1216.26,2040.15 1229.72,2032.64C1238.16,2027.93 1247.24,2026.35 1255.75,2029.05Z" style="fill:white;"/>
        </g>
    </g>
</svg>
